<svg width="38" height="60" viewBox="0 0 38 60" fill="none" xmlns="http://www.w3.org/2000/svg">
<path d="M33.6037 25.4154C32.9568 24.2271 32.2912 22.9779 31.7076 21.7076C31.5201 21.3115 31.3537 20.9154 31.1873 20.5404C29.1037 15.9794 26.9568 11.25 18.7495 11.25C10.5416 11.25 8.37382 15.9797 6.31165 20.5404C6.14525 20.9154 5.95775 21.3115 5.79135 21.7076C5.20776 22.9779 4.54217 24.2294 3.89526 25.4154C1.97811 28.9568 0 32.625 0 37.5C0 41.9578 1.58433 45.1242 4.68743 46.875C7.60302 48.5203 11.5405 48.75 15.0001 48.75H22.4999C25.9592 48.75 29.8966 48.5203 32.8126 46.875C35.9367 45.1031 37.5 41.9578 37.5 37.5C37.5 32.625 35.5008 28.9596 33.6047 25.4154H33.6037ZM26.249 44.8332V33.7494H11.2492V44.8332C5.66648 44.2918 3.74933 42.2293 3.74933 37.4994C3.74933 33.583 5.35244 30.6252 7.18757 27.2082C7.8532 25.959 8.56335 24.6676 9.18674 23.2918C9.37424 22.8957 9.56174 22.4785 9.72814 22.1035C11.7273 17.6879 12.9367 15.0205 18.728 15.0205C24.5193 15.0205 25.7287 17.6877 27.7279 22.1035C27.8943 22.4996 28.0818 22.8957 28.2692 23.2918C28.9161 24.6676 29.6028 25.959 30.2684 27.2082C32.1223 30.6254 33.7067 33.5832 33.7067 37.4994C33.7488 42.2502 31.8317 44.2914 26.2488 44.8332H26.249Z" fill="#0C0C0C"/>
</svg>
